<svg width="1353" height="218" viewBox="0 0 1353 218" fill="none" xmlns="http://www.w3.org/2000/svg">
<circle cx="1350.5" cy="212.5" r="2.5" fill="white"/>
<circle cx="2.5" cy="80.5" r="2.5" fill="#9EBCF9"/>
<circle cx="641.5" cy="193.5" r="1.5" fill="white"/>
<path d="M32 160C31.2636 160 30.6667 160.597 30.6667 161.333V162.667H29.3333C28.597 162.667 28 163.264 28 164C28 164.736 28.597 165.333 29.3333 165.333H30.6667V166.667C30.6667 167.403 31.2636 168 32 168C32.7364 168 33.3333 167.403 33.3333 166.667V165.333H34.6667C35.403 165.333 36 164.736 36 164C36 163.264 35.403 162.667 34.6667 162.667H33.3333V161.333C33.3333 160.597 32.7364 160 32 160Z" fill="#49D38A"/>
<path d="M1269.49 19.8284C1268.96 19.3077 1268.12 19.3077 1267.6 19.8284L1266.66 20.7712L1265.71 19.8284C1265.19 19.3077 1264.35 19.3077 1263.83 19.8284C1263.31 20.3491 1263.31 21.1933 1263.83 21.714L1264.77 22.6569L1263.83 23.5997C1263.31 24.1204 1263.31 24.9646 1263.83 25.4853C1264.35 26.006 1265.19 26.006 1265.71 25.4853L1266.66 24.5425L1267.6 25.4853C1268.12 26.006 1268.96 26.006 1269.49 25.4853C1270.01 24.9646 1270.01 24.1204 1269.49 23.5997L1268.54 22.6569L1269.49 21.714C1270.01 21.1933 1270.01 20.3491 1269.49 19.8284Z" fill="#49D38A"/>
<path d="M750 0C749.264 0 748.667 0.596954 748.667 1.33333V2.66667H747.333C746.597 2.66667 746 3.26362 746 4C746 4.73638 746.597 5.33333 747.333 5.33333H748.667V6.66667C748.667 7.40305 749.264 8 750 8C750.736 8 751.333 7.40305 751.333 6.66667V5.33333H752.667C753.403 5.33333 754 4.73638 754 4C754 3.26362 753.403 2.66667 752.667 2.66667H751.333V1.33333C751.333 0.596954 750.736 0 750 0Z" fill="#49D38A"/>
<circle cx="337.5" cy="22.5" r="2.5" fill="white"/>
<circle cx="969" cy="130" r="3" fill="#543A7F"/>
<circle cx="199.5" cy="10.5" r="1.5" fill="#543A7F"/>
<circle cx="21.5" cy="216.5" r="1.5" fill="white"/>
<circle cx="819.5" cy="43.5" r="1.5" fill="white"/>
</svg>
